<svg width="216" height="70" viewBox="0 0 216 70" fill="none" xmlns="http://www.w3.org/2000/svg">
<rect width="216" height="70" fill="#232323"/>
<g clip-path="url(#clip0_0_1)">
<rect width="216" height="70" rx="25" fill="#A9CC54"/>
<path d="M47.016 23.96L37.672 47H34.296L24.952 23.96H27.944C28.2747 23.96 28.5413 24.0453 28.744 24.216C28.9467 24.376 29.1013 24.5787 29.208 24.824L35.144 39.848C35.464 40.6907 35.7573 41.6613 36.024 42.76C36.1413 42.216 36.264 41.6987 36.392 41.208C36.5307 40.7173 36.68 40.264 36.84 39.848L42.76 24.824C42.8453 24.6107 42.9947 24.4133 43.208 24.232C43.4213 24.0507 43.688 23.96 44.008 23.96H47.016ZM52.6488 30.68V47H49.2088V30.68H52.6488ZM53.2248 25.752C53.2248 26.0613 53.1608 26.3547 53.0328 26.632C52.9154 26.9093 52.7501 27.1547 52.5368 27.368C52.3234 27.5707 52.0728 27.736 51.7848 27.864C51.5074 27.9813 51.2088 28.04 50.8888 28.04C50.5794 28.04 50.2861 27.9813 50.0088 27.864C49.7421 27.736 49.5074 27.5707 49.3048 27.368C49.1021 27.1547 48.9368 26.9093 48.8088 26.632C48.6914 26.3547 48.6328 26.0613 48.6328 25.752C48.6328 25.432 48.6914 25.1333 48.8088 24.856C48.9368 24.5787 49.1021 24.3387 49.3048 24.136C49.5074 23.9227 49.7421 23.7573 50.0088 23.64C50.2861 23.512 50.5794 23.448 50.8888 23.448C51.2088 23.448 51.5074 23.512 51.7848 23.64C52.0728 23.7573 52.3234 23.9227 52.5368 24.136C52.7501 24.3387 52.9154 24.5787 53.0328 24.856C53.1608 25.1333 53.2248 25.432 53.2248 25.752ZM67.675 37C67.675 36.424 67.5897 35.8907 67.419 35.4C67.259 34.8987 67.019 34.4667 66.699 34.104C66.379 33.7307 65.979 33.4427 65.499 33.24C65.0297 33.0267 64.4857 32.92 63.867 32.92C62.619 32.92 61.6377 33.2773 60.923 33.992C60.2083 34.7067 59.755 35.7093 59.563 37H67.675ZM59.467 39.112C59.5097 40.04 59.6537 40.8453 59.899 41.528C60.1443 42.2 60.4697 42.76 60.875 43.208C61.291 43.656 61.7817 43.992 62.347 44.216C62.923 44.4293 63.563 44.536 64.267 44.536C64.939 44.536 65.5203 44.4613 66.011 44.312C66.5017 44.152 66.9283 43.9813 67.291 43.8C67.6537 43.608 67.963 43.4373 68.219 43.288C68.475 43.128 68.7097 43.048 68.923 43.048C69.2003 43.048 69.4137 43.1547 69.563 43.368L70.539 44.632C70.1337 45.112 69.675 45.5173 69.163 45.848C68.651 46.1787 68.107 46.4507 67.531 46.664C66.955 46.8667 66.363 47.0107 65.755 47.096C65.147 47.192 64.555 47.24 63.979 47.24C62.8483 47.24 61.7977 47.0533 60.827 46.68C59.867 46.296 59.0297 45.736 58.315 45C57.611 44.264 57.0563 43.352 56.651 42.264C56.2563 41.176 56.059 39.9227 56.059 38.504C56.059 37.3733 56.235 36.3173 56.587 35.336C56.9497 34.3547 57.4617 33.5013 58.123 32.776C58.795 32.0507 59.6057 31.48 60.555 31.064C61.515 30.6373 62.5977 30.424 63.803 30.424C64.8057 30.424 65.7337 30.5893 66.587 30.92C67.4403 31.24 68.1763 31.7147 68.795 32.344C69.4137 32.9733 69.8937 33.7467 70.235 34.664C70.587 35.5707 70.763 36.6053 70.763 37.768C70.763 38.3013 70.7043 38.6587 70.587 38.84C70.4697 39.0213 70.2563 39.112 69.947 39.112H59.467ZM96.7115 30.68L91.4795 47H88.7435C88.4235 47 88.1995 46.792 88.0715 46.376L84.8235 36.216C84.7382 35.928 84.6582 35.64 84.5835 35.352C84.5195 35.064 84.4608 34.7813 84.4075 34.504C84.2902 35.08 84.1462 35.656 83.9755 36.232L80.6795 46.376C80.5622 46.792 80.3115 47 79.9275 47H77.3195L72.0875 30.68H74.8075C75.0742 30.68 75.2928 30.7493 75.4635 30.888C75.6448 31.016 75.7622 31.1707 75.8155 31.352L78.5355 40.856C78.6422 41.2933 78.7328 41.72 78.8075 42.136C78.8928 42.5413 78.9675 42.9467 79.0315 43.352C79.1382 42.9467 79.2502 42.5413 79.3675 42.136C79.4848 41.72 79.6075 41.2933 79.7355 40.856L82.7915 31.304C82.8448 31.112 82.9515 30.9573 83.1115 30.84C83.2822 30.712 83.4848 30.648 83.7195 30.648H85.2235C85.4688 30.648 85.6768 30.712 85.8475 30.84C86.0182 30.9573 86.1302 31.112 86.1835 31.304L89.1595 40.856C89.2875 41.2933 89.4048 41.72 89.5115 42.136C89.6288 42.552 89.7355 42.968 89.8315 43.384C89.9062 42.9787 89.9862 42.568 90.0715 42.152C90.1568 41.736 90.2582 41.304 90.3755 40.856L93.1435 31.352C93.2075 31.16 93.3248 31 93.4955 30.872C93.6662 30.744 93.8742 30.68 94.1195 30.68H96.7115ZM127.398 35.48C127.398 37.1867 127.12 38.7493 126.566 40.168C126.011 41.576 125.227 42.7867 124.214 43.8C123.211 44.8133 122 45.6027 120.582 46.168C119.174 46.7227 117.606 47 115.878 47H107.174V23.96H115.878C117.606 23.96 119.174 24.2427 120.582 24.808C122 25.3627 123.211 26.1467 124.214 27.16C125.227 28.1733 126.011 29.3893 126.566 30.808C127.12 32.216 127.398 33.7733 127.398 35.48ZM123.574 35.48C123.574 34.1573 123.392 32.968 123.03 31.912C122.678 30.856 122.166 29.9653 121.494 29.24C120.832 28.5147 120.027 27.96 119.078 27.576C118.128 27.1813 117.062 26.984 115.878 26.984H110.934V43.976H115.878C117.062 43.976 118.128 43.784 119.078 43.4C120.027 43.016 120.832 42.4613 121.494 41.736C122.166 41 122.678 40.1093 123.03 39.064C123.392 38.008 123.574 36.8133 123.574 35.48ZM141.363 37C141.363 36.424 141.277 35.8907 141.107 35.4C140.947 34.8987 140.707 34.4667 140.387 34.104C140.067 33.7307 139.667 33.4427 139.187 33.24C138.717 33.0267 138.173 32.92 137.555 32.92C136.307 32.92 135.325 33.2773 134.611 33.992C133.896 34.7067 133.443 35.7093 133.251 37H141.363ZM133.155 39.112C133.197 40.04 133.341 40.8453 133.587 41.528C133.832 42.2 134.157 42.76 134.563 43.208C134.979 43.656 135.469 43.992 136.035 44.216C136.611 44.4293 137.251 44.536 137.955 44.536C138.627 44.536 139.208 44.4613 139.699 44.312C140.189 44.152 140.616 43.9813 140.979 43.8C141.341 43.608 141.651 43.4373 141.907 43.288C142.163 43.128 142.397 43.048 142.611 43.048C142.888 43.048 143.101 43.1547 143.251 43.368L144.227 44.632C143.821 45.112 143.363 45.5173 142.851 45.848C142.339 46.1787 141.795 46.4507 141.219 46.664C140.643 46.8667 140.051 47.0107 139.443 47.096C138.835 47.192 138.243 47.24 137.667 47.24C136.536 47.24 135.485 47.0533 134.515 46.68C133.555 46.296 132.717 45.736 132.003 45C131.299 44.264 130.744 43.352 130.339 42.264C129.944 41.176 129.747 39.9227 129.747 38.504C129.747 37.3733 129.923 36.3173 130.275 35.336C130.637 34.3547 131.149 33.5013 131.811 32.776C132.483 32.0507 133.293 31.48 134.243 31.064C135.203 30.6373 136.285 30.424 137.491 30.424C138.493 30.424 139.421 30.5893 140.275 30.92C141.128 31.24 141.864 31.7147 142.483 32.344C143.101 32.9733 143.581 33.7467 143.923 34.664C144.275 35.5707 144.451 36.6053 144.451 37.768C144.451 38.3013 144.392 38.6587 144.275 38.84C144.157 39.0213 143.944 39.112 143.635 39.112H133.155ZM147.659 47V30.68H149.739C150.208 30.68 150.507 30.8987 150.635 31.336L150.859 32.76C151.157 32.4187 151.467 32.1093 151.787 31.832C152.107 31.544 152.448 31.2987 152.811 31.096C153.184 30.8827 153.579 30.7173 153.995 30.6C154.421 30.4827 154.88 30.424 155.371 30.424C155.893 30.424 156.373 30.4987 156.811 30.648C157.248 30.7973 157.632 31.0107 157.963 31.288C158.304 31.5653 158.597 31.9013 158.843 32.296C159.088 32.6907 159.291 33.1333 159.451 33.624C159.696 33.0587 160.005 32.5733 160.379 32.168C160.752 31.7627 161.168 31.432 161.627 31.176C162.085 30.92 162.571 30.7333 163.083 30.616C163.605 30.488 164.133 30.424 164.667 30.424C165.541 30.424 166.32 30.5627 167.003 30.84C167.696 31.1173 168.277 31.5227 168.747 32.056C169.227 32.5787 169.589 33.224 169.835 33.992C170.08 34.76 170.203 35.6347 170.203 36.616V47H166.763V36.616C166.763 35.464 166.512 34.6 166.011 34.024C165.52 33.4373 164.789 33.144 163.819 33.144C163.381 33.144 162.971 33.2187 162.587 33.368C162.203 33.5173 161.867 33.736 161.579 34.024C161.291 34.312 161.061 34.6747 160.891 35.112C160.731 35.5387 160.651 36.04 160.651 36.616V47H157.211V36.616C157.211 35.4213 156.971 34.5467 156.491 33.992C156.011 33.4267 155.307 33.144 154.378 33.144C153.739 33.144 153.147 33.3093 152.603 33.64C152.059 33.96 151.557 34.4027 151.099 34.968V47H147.659ZM181.277 30.424C182.482 30.424 183.57 30.6213 184.541 31.016C185.522 31.4107 186.354 31.9707 187.037 32.696C187.73 33.4213 188.264 34.3013 188.637 35.336C189.01 36.3707 189.197 37.5333 189.197 38.824C189.197 40.1147 189.01 41.2773 188.637 42.312C188.264 43.3467 187.73 44.232 187.037 44.968C186.354 45.6933 185.522 46.2533 184.541 46.648C183.57 47.0427 182.482 47.24 181.277 47.24C180.061 47.24 178.962 47.0427 177.981 46.648C177.01 46.2533 176.178 45.6933 175.485 44.968C174.792 44.232 174.258 43.3467 173.885 42.312C173.512 41.2773 173.325 40.1147 173.325 38.824C173.325 37.5333 173.512 36.3707 173.885 35.336C174.258 34.3013 174.792 33.4213 175.485 32.696C176.178 31.9707 177.01 31.4107 177.981 31.016C178.962 30.6213 180.061 30.424 181.277 30.424ZM181.277 44.552C182.749 44.552 183.842 44.0613 184.557 43.08C185.282 42.088 185.645 40.6747 185.645 38.84C185.645 37.0053 185.282 35.592 184.557 34.6C183.842 33.5973 182.749 33.096 181.277 33.096C179.784 33.096 178.674 33.5973 177.949 34.6C177.224 35.592 176.861 37.0053 176.861 38.84C176.861 40.6747 177.224 42.088 177.949 43.08C178.674 44.0613 179.784 44.552 181.277 44.552Z" fill="#161918"/>
</g>
<defs>
<clipPath id="clip0_0_1">
<rect width="216" height="70" fill="white"/>
</clipPath>
</defs>
</svg>
