<svg width="104" height="104" viewBox="0 0 104 104" fill="none" xmlns="http://www.w3.org/2000/svg">
<rect width="104" height="104" rx="25" fill="#A9CC54"/>
<path d="M23.6375 42.9875C23.7958 42.9875 23.9333 43.05 24.05 43.175L25.2125 44.4375C24.4792 45.3208 23.5792 46.0042 22.5125 46.4875C21.4458 46.9625 20.1708 47.2 18.6875 47.2C17.3708 47.2 16.1792 46.975 15.1125 46.525C14.0542 46.0667 13.15 45.4333 12.4 44.625C11.65 43.8083 11.0708 42.8375 10.6625 41.7125C10.2625 40.5875 10.0625 39.35 10.0625 38C10.0625 36.65 10.275 35.4125 10.7 34.2875C11.1333 33.1542 11.7375 32.1833 12.5125 31.375C13.2958 30.5583 14.2292 29.925 15.3125 29.475C16.4042 29.025 17.6042 28.8 18.9125 28.8C20.2125 28.8 21.3583 29.0125 22.35 29.4375C23.35 29.8542 24.2167 30.4125 24.95 31.1125L23.9875 32.475C23.9208 32.5667 23.8417 32.6458 23.75 32.7125C23.6583 32.7792 23.5333 32.8125 23.375 32.8125C23.2083 32.8125 23.0167 32.7375 22.8 32.5875C22.5917 32.4292 22.3208 32.2583 21.9875 32.075C21.6625 31.8833 21.25 31.7125 20.75 31.5625C20.2583 31.4042 19.6417 31.325 18.9 31.325C18.0417 31.325 17.2542 31.475 16.5375 31.775C15.8208 32.075 15.2042 32.5125 14.6875 33.0875C14.1708 33.6625 13.7667 34.3625 13.475 35.1875C13.1917 36.0125 13.05 36.95 13.05 38C13.05 39.0583 13.2 40.0042 13.5 40.8375C13.8 41.6625 14.2125 42.3625 14.7375 42.9375C15.2625 43.5042 15.8792 43.9375 16.5875 44.2375C17.2958 44.5375 18.0583 44.6875 18.875 44.6875C19.375 44.6875 19.8208 44.6625 20.2125 44.6125C20.6125 44.5542 20.9792 44.4667 21.3125 44.35C21.6458 44.225 21.9583 44.0708 22.25 43.8875C22.55 43.7042 22.8458 43.4792 23.1375 43.2125C23.3042 43.0625 23.4708 42.9875 23.6375 42.9875ZM35.333 39.1875C35.333 38.7375 35.2663 38.3208 35.133 37.9375C35.008 37.5458 34.8205 37.2083 34.5705 36.925C34.3205 36.6333 34.008 36.4083 33.633 36.25C33.2663 36.0833 32.8413 36 32.358 36C31.383 36 30.6163 36.2792 30.058 36.8375C29.4997 37.3958 29.1455 38.1792 28.9955 39.1875H35.333ZM28.9205 40.8375C28.9538 41.5625 29.0663 42.1917 29.258 42.725C29.4497 43.25 29.7038 43.6875 30.0205 44.0375C30.3455 44.3875 30.7288 44.65 31.1705 44.825C31.6205 44.9917 32.1205 45.075 32.6705 45.075C33.1955 45.075 33.6497 45.0167 34.033 44.9C34.4163 44.775 34.7497 44.6417 35.033 44.5C35.3163 44.35 35.558 44.2167 35.758 44.1C35.958 43.975 36.1413 43.9125 36.308 43.9125C36.5247 43.9125 36.6913 43.9958 36.808 44.1625L37.5705 45.15C37.2538 45.525 36.8955 45.8417 36.4955 46.1C36.0955 46.3583 35.6705 46.5708 35.2205 46.7375C34.7705 46.8958 34.308 47.0083 33.833 47.075C33.358 47.15 32.8955 47.1875 32.4455 47.1875C31.5622 47.1875 30.7413 47.0417 29.983 46.75C29.233 46.45 28.5788 46.0125 28.0205 45.4375C27.4705 44.8625 27.0372 44.15 26.7205 43.3C26.4122 42.45 26.258 41.4708 26.258 40.3625C26.258 39.4792 26.3955 38.6542 26.6705 37.8875C26.9538 37.1208 27.3538 36.4542 27.8705 35.8875C28.3955 35.3208 29.0288 34.875 29.7705 34.55C30.5205 34.2167 31.3663 34.05 32.308 34.05C33.0913 34.05 33.8163 34.1792 34.483 34.4375C35.1497 34.6875 35.7247 35.0583 36.208 35.55C36.6913 36.0417 37.0663 36.6458 37.333 37.3625C37.608 38.0708 37.7455 38.8792 37.7455 39.7875C37.7455 40.2042 37.6997 40.4833 37.608 40.625C37.5163 40.7667 37.3497 40.8375 37.108 40.8375H28.9205ZM42.9893 28.5V47H40.3018V28.5H42.9893ZM54.6689 39.1875C54.6689 38.7375 54.6023 38.3208 54.4689 37.9375C54.3439 37.5458 54.1564 37.2083 53.9064 36.925C53.6564 36.6333 53.3439 36.4083 52.9689 36.25C52.6023 36.0833 52.1773 36 51.6939 36C50.7189 36 49.9523 36.2792 49.3939 36.8375C48.8356 37.3958 48.4814 38.1792 48.3314 39.1875H54.6689ZM48.2564 40.8375C48.2898 41.5625 48.4023 42.1917 48.5939 42.725C48.7856 43.25 49.0398 43.6875 49.3564 44.0375C49.6814 44.3875 50.0648 44.65 50.5064 44.825C50.9564 44.9917 51.4564 45.075 52.0064 45.075C52.5314 45.075 52.9856 45.0167 53.3689 44.9C53.7523 44.775 54.0856 44.6417 54.3689 44.5C54.6523 44.35 54.8939 44.2167 55.0939 44.1C55.2939 43.975 55.4773 43.9125 55.6439 43.9125C55.8606 43.9125 56.0273 43.9958 56.1439 44.1625L56.9064 45.15C56.5898 45.525 56.2314 45.8417 55.8314 46.1C55.4314 46.3583 55.0064 46.5708 54.5564 46.7375C54.1064 46.8958 53.6439 47.0083 53.1689 47.075C52.6939 47.15 52.2314 47.1875 51.7814 47.1875C50.8981 47.1875 50.0773 47.0417 49.3189 46.75C48.5689 46.45 47.9148 46.0125 47.3564 45.4375C46.8064 44.8625 46.3731 44.15 46.0564 43.3C45.7481 42.45 45.5939 41.4708 45.5939 40.3625C45.5939 39.4792 45.7314 38.6542 46.0064 37.8875C46.2898 37.1208 46.6898 36.4542 47.2064 35.8875C47.7314 35.3208 48.3648 34.875 49.1064 34.55C49.8564 34.2167 50.7023 34.05 51.6439 34.05C52.4273 34.05 53.1523 34.1792 53.8189 34.4375C54.4856 34.6875 55.0606 35.0583 55.5439 35.55C56.0273 36.0417 56.4023 36.6458 56.6689 37.3625C56.9439 38.0708 57.0814 38.8792 57.0814 39.7875C57.0814 40.2042 57.0356 40.4833 56.9439 40.625C56.8523 40.7667 56.6856 40.8375 56.4439 40.8375H48.2564ZM62.1252 36.6125C62.5252 35.8042 63.0085 35.1708 63.5752 34.7125C64.1419 34.2458 64.821 34.0125 65.6127 34.0125C65.8877 34.0125 66.146 34.0458 66.3877 34.1125C66.6294 34.1708 66.846 34.2625 67.0377 34.3875L66.8502 36.4125C66.8169 36.5542 66.7627 36.6542 66.6877 36.7125C66.621 36.7625 66.5294 36.7875 66.4127 36.7875C66.2877 36.7875 66.1085 36.7667 65.8752 36.725C65.6419 36.675 65.396 36.65 65.1377 36.65C64.7627 36.65 64.4294 36.7042 64.1377 36.8125C63.8544 36.9208 63.596 37.0792 63.3627 37.2875C63.1377 37.4958 62.9377 37.75 62.7627 38.05C62.5877 38.35 62.4252 38.6917 62.2752 39.075V47H59.5877V34.25H61.1502C61.4335 34.25 61.6294 34.3042 61.7377 34.4125C61.846 34.5125 61.921 34.6917 61.9627 34.95L62.1252 36.6125ZM80.1287 34.25L73.1037 50.625C73.012 50.8167 72.8995 50.9667 72.7662 51.075C72.6412 51.1833 72.4454 51.2375 72.1787 51.2375H70.1912L72.5412 46.1375L67.3412 34.25H69.6787C69.9037 34.25 70.0745 34.3042 70.1912 34.4125C70.3162 34.5125 70.4079 34.6333 70.4662 34.775L73.5037 42.0125C73.5787 42.2208 73.6454 42.4292 73.7037 42.6375C73.7704 42.8375 73.8329 43.0458 73.8912 43.2625C73.9579 43.0458 74.0245 42.8333 74.0912 42.625C74.1579 42.4167 74.2329 42.2083 74.3162 42L77.2287 34.775C77.287 34.625 77.3829 34.5 77.5162 34.4C77.6579 34.3 77.812 34.25 77.9787 34.25H80.1287Z" fill="#161918"/>
<path d="M14.075 77H11.1375V59H14.075V77ZM20.1568 65.9375C20.4318 65.6542 20.7152 65.4 21.0068 65.175C21.3068 64.9417 21.6235 64.7417 21.9568 64.575C22.2902 64.4083 22.6443 64.2792 23.0193 64.1875C23.3943 64.0958 23.8027 64.05 24.2443 64.05C24.9443 64.05 25.5568 64.1667 26.0818 64.4C26.6152 64.6333 27.061 64.9625 27.4193 65.3875C27.786 65.8125 28.061 66.325 28.2443 66.925C28.4277 67.5167 28.5193 68.1708 28.5193 68.8875V77H25.8443V68.8875C25.8443 68.0292 25.6443 67.3625 25.2443 66.8875C24.8527 66.4125 24.2527 66.175 23.4443 66.175C22.8443 66.175 22.286 66.3125 21.7693 66.5875C21.261 66.8625 20.7818 67.2375 20.3318 67.7125V77H17.6443V64.25H19.2693C19.636 64.25 19.8693 64.4208 19.9693 64.7625L20.1568 65.9375ZM39.2705 66.5625C39.2038 66.6792 39.1288 66.7625 39.0455 66.8125C38.9622 66.8625 38.858 66.8875 38.733 66.8875C38.5913 66.8875 38.4372 66.8458 38.2705 66.7625C38.1038 66.6708 37.908 66.5708 37.683 66.4625C37.458 66.3542 37.1913 66.2583 36.883 66.175C36.583 66.0833 36.2288 66.0375 35.8205 66.0375C35.4872 66.0375 35.183 66.0792 34.908 66.1625C34.6413 66.2375 34.4122 66.35 34.2205 66.5C34.0372 66.6417 33.8955 66.8125 33.7955 67.0125C33.6955 67.2042 33.6455 67.4125 33.6455 67.6375C33.6455 67.9375 33.7372 68.1875 33.9205 68.3875C34.1038 68.5875 34.3455 68.7625 34.6455 68.9125C34.9455 69.0542 35.2872 69.1833 35.6705 69.3C36.0538 69.4167 36.4455 69.5417 36.8455 69.675C37.2455 69.8083 37.6372 69.9625 38.0205 70.1375C38.4038 70.3125 38.7455 70.5292 39.0455 70.7875C39.3455 71.0375 39.5872 71.3458 39.7705 71.7125C39.9538 72.0708 40.0455 72.5083 40.0455 73.025C40.0455 73.625 39.9372 74.1792 39.7205 74.6875C39.5038 75.1958 39.1872 75.6375 38.7705 76.0125C38.3538 76.3875 37.833 76.6792 37.208 76.8875C36.5913 77.0958 35.883 77.2 35.083 77.2C34.6413 77.2 34.2122 77.1583 33.7955 77.075C33.3872 77 32.9955 76.8958 32.6205 76.7625C32.2538 76.6208 31.908 76.4542 31.583 76.2625C31.2663 76.0708 30.983 75.8625 30.733 75.6375L31.358 74.6125C31.433 74.4875 31.5247 74.3917 31.633 74.325C31.7497 74.25 31.8913 74.2125 32.058 74.2125C32.233 74.2125 32.4038 74.2708 32.5705 74.3875C32.7455 74.4958 32.9455 74.6167 33.1705 74.75C33.4038 74.8833 33.683 75.0083 34.008 75.125C34.333 75.2333 34.7372 75.2875 35.2205 75.2875C35.6205 75.2875 35.9663 75.2417 36.258 75.15C36.5497 75.05 36.7913 74.9167 36.983 74.75C37.1747 74.5833 37.3163 74.3958 37.408 74.1875C37.4997 73.9708 37.5455 73.7417 37.5455 73.5C37.5455 73.175 37.4538 72.9083 37.2705 72.7C37.0872 72.4917 36.8413 72.3125 36.533 72.1625C36.233 72.0125 35.8872 71.8792 35.4955 71.7625C35.1122 71.6458 34.7205 71.5208 34.3205 71.3875C33.9205 71.2542 33.5247 71.1 33.133 70.925C32.7497 70.75 32.4038 70.5292 32.0955 70.2625C31.7955 69.9875 31.5538 69.6583 31.3705 69.275C31.1872 68.8833 31.0955 68.4083 31.0955 67.85C31.0955 67.3417 31.1955 66.8583 31.3955 66.4C31.6038 65.9417 31.9038 65.5375 32.2955 65.1875C32.6955 64.8375 33.183 64.5625 33.758 64.3625C34.3413 64.1542 35.0122 64.05 35.7705 64.05C36.6288 64.05 37.408 64.1875 38.108 64.4625C38.808 64.7375 39.3955 65.1125 39.8705 65.5875L39.2705 66.5625ZM45.3711 64.25V77H42.6836V64.25H45.3711ZM45.8211 60.4C45.8211 60.6417 45.7711 60.8708 45.6711 61.0875C45.5794 61.3042 45.4503 61.4958 45.2836 61.6625C45.1169 61.8208 44.9211 61.95 44.6961 62.05C44.4794 62.1417 44.2461 62.1875 43.9961 62.1875C43.7544 62.1875 43.5253 62.1417 43.3086 62.05C43.1003 61.95 42.9169 61.8208 42.7586 61.6625C42.6003 61.4958 42.4711 61.3042 42.3711 61.0875C42.2794 60.8708 42.2336 60.6417 42.2336 60.4C42.2336 60.15 42.2794 59.9167 42.3711 59.7C42.4711 59.4833 42.6003 59.2958 42.7586 59.1375C42.9169 58.9708 43.1003 58.8417 43.3086 58.75C43.5253 58.65 43.7544 58.6 43.9961 58.6C44.2461 58.6 44.4794 58.65 44.6961 58.75C44.9211 58.8417 45.1169 58.9708 45.2836 59.1375C45.4503 59.2958 45.5794 59.4833 45.6711 59.7C45.7711 59.9167 45.8211 60.15 45.8211 60.4ZM53.2979 70.5125C54.1312 70.5125 54.7562 70.3 55.1729 69.875C55.5895 69.45 55.7979 68.8958 55.7979 68.2125C55.7979 67.5125 55.5895 66.9583 55.1729 66.55C54.7562 66.1417 54.1312 65.9375 53.2979 65.9375C52.4729 65.9375 51.8479 66.1417 51.4229 66.55C51.0062 66.9583 50.7979 67.5125 50.7979 68.2125C50.7979 68.5458 50.852 68.8542 50.9604 69.1375C51.0687 69.4208 51.227 69.6667 51.4354 69.875C51.6437 70.075 51.902 70.2333 52.2104 70.35C52.527 70.4583 52.8895 70.5125 53.2979 70.5125ZM57.0354 77.625C57.0354 77.3417 56.952 77.1167 56.7854 76.95C56.627 76.775 56.4104 76.6417 56.1354 76.55C55.8604 76.45 55.5395 76.3792 55.1729 76.3375C54.8062 76.2875 54.4145 76.2542 53.9979 76.2375C53.5895 76.2125 53.1687 76.1917 52.7354 76.175C52.3104 76.15 51.8979 76.1083 51.4979 76.05C51.0979 76.2583 50.7687 76.5083 50.5104 76.8C50.2604 77.0917 50.1354 77.4292 50.1354 77.8125C50.1354 78.0625 50.1979 78.2958 50.3229 78.5125C50.4562 78.7292 50.6562 78.9167 50.9229 79.075C51.1979 79.2333 51.5437 79.3583 51.9604 79.45C52.3854 79.5417 52.8937 79.5875 53.4854 79.5875C54.6687 79.5875 55.5562 79.4042 56.1479 79.0375C56.7395 78.6708 57.0354 78.2 57.0354 77.625ZM59.7354 64.7125V65.7125C59.7354 66.0458 59.5354 66.25 59.1354 66.325L57.8604 66.5375C58.077 67.0208 58.1854 67.5583 58.1854 68.15C58.1854 68.775 58.0604 69.3417 57.8104 69.85C57.5687 70.3583 57.2312 70.7917 56.7979 71.15C56.3645 71.5083 55.8479 71.7833 55.2479 71.975C54.6479 72.1667 53.9979 72.2625 53.2979 72.2625C53.0312 72.2625 52.7687 72.25 52.5104 72.225C52.2604 72.1917 52.0145 72.15 51.7729 72.1C51.5312 72.2417 51.352 72.3917 51.2354 72.55C51.1187 72.7083 51.0604 72.8708 51.0604 73.0375C51.0604 73.3125 51.1812 73.5167 51.4229 73.65C51.6645 73.7833 51.9812 73.8792 52.3729 73.9375C52.7729 73.9958 53.227 74.0333 53.7354 74.05C54.2437 74.0667 54.7604 74.0958 55.2854 74.1375C55.8104 74.1792 56.327 74.25 56.8354 74.35C57.3437 74.4417 57.7937 74.6 58.1854 74.825C58.5854 75.0417 58.9062 75.3375 59.1479 75.7125C59.3895 76.0875 59.5104 76.575 59.5104 77.175C59.5104 77.725 59.3729 78.2625 59.0979 78.7875C58.8229 79.3125 58.4229 79.7792 57.8979 80.1875C57.3812 80.5958 56.7479 80.9208 55.9979 81.1625C55.2479 81.4125 54.3937 81.5375 53.4354 81.5375C52.4854 81.5375 51.6562 81.4458 50.9479 81.2625C50.2479 81.0792 49.6604 80.8292 49.1854 80.5125C48.7187 80.2042 48.3687 79.8458 48.1354 79.4375C47.9104 79.0292 47.7979 78.6042 47.7979 78.1625C47.7979 77.5625 47.9854 77.05 48.3604 76.625C48.7437 76.2 49.2604 75.8667 49.9104 75.625C49.5604 75.4583 49.277 75.2292 49.0604 74.9375C48.852 74.6458 48.7479 74.2625 48.7479 73.7875C48.7479 73.4125 48.8854 73.0208 49.1604 72.6125C49.4354 72.2042 49.8479 71.8583 50.3979 71.575C49.7645 71.225 49.2645 70.7625 48.8979 70.1875C48.5312 69.6042 48.3479 68.925 48.3479 68.15C48.3479 67.5167 48.4687 66.9458 48.7104 66.4375C48.9604 65.9292 49.3062 65.4958 49.7479 65.1375C50.1895 64.7792 50.7104 64.5042 51.3104 64.3125C51.9187 64.1208 52.5812 64.025 53.2979 64.025C54.3979 64.025 55.3562 64.2542 56.1729 64.7125H59.7354ZM64.5457 65.7625C65.0707 65.2458 65.6457 64.8333 66.2707 64.525C66.8957 64.2083 67.6249 64.05 68.4582 64.05C69.1582 64.05 69.7707 64.1667 70.2957 64.4C70.829 64.6333 71.2749 64.9625 71.6332 65.3875C71.9999 65.8125 72.2749 66.325 72.4582 66.925C72.6415 67.5167 72.7332 68.1708 72.7332 68.8875V77H70.0582V68.8875C70.0582 68.0292 69.8582 67.3625 69.4582 66.8875C69.0665 66.4125 68.4665 66.175 67.6582 66.175C67.0582 66.175 66.4999 66.3125 65.9832 66.5875C65.4749 66.8625 64.9957 67.2375 64.5457 67.7125V77H61.8582V58.5H64.5457V65.7625ZM79.7885 77.2C78.7301 77.2 77.9135 76.9042 77.3385 76.3125C76.7718 75.7125 76.4885 74.8708 76.4885 73.7875V66.3625H75.0885C74.9385 66.3625 74.8093 66.3167 74.701 66.225C74.5926 66.125 74.5385 65.9792 74.5385 65.7875V64.7L76.601 64.4L77.1885 60.7125C77.2301 60.5708 77.301 60.4583 77.401 60.375C77.501 60.2833 77.6343 60.2375 77.801 60.2375H79.176V64.425H82.7135V66.3625H79.176V73.6C79.176 74.0583 79.2885 74.4083 79.5135 74.65C79.7385 74.8917 80.0385 75.0125 80.4135 75.0125C80.6218 75.0125 80.801 74.9875 80.951 74.9375C81.101 74.8792 81.2301 74.8208 81.3385 74.7625C81.4468 74.6958 81.5385 74.6375 81.6135 74.5875C81.6968 74.5292 81.776 74.5 81.851 74.5C82.001 74.5 82.1218 74.5833 82.2135 74.75L83.0135 76.0625C82.5968 76.4292 82.1051 76.7125 81.5385 76.9125C80.9718 77.1042 80.3885 77.2 79.7885 77.2ZM92.4443 66.5625C92.3777 66.6792 92.3027 66.7625 92.2193 66.8125C92.136 66.8625 92.0318 66.8875 91.9068 66.8875C91.7652 66.8875 91.611 66.8458 91.4443 66.7625C91.2777 66.6708 91.0818 66.5708 90.8568 66.4625C90.6318 66.3542 90.3652 66.2583 90.0568 66.175C89.7568 66.0833 89.4027 66.0375 88.9943 66.0375C88.661 66.0375 88.3568 66.0792 88.0818 66.1625C87.8152 66.2375 87.586 66.35 87.3943 66.5C87.211 66.6417 87.0693 66.8125 86.9693 67.0125C86.8693 67.2042 86.8193 67.4125 86.8193 67.6375C86.8193 67.9375 86.911 68.1875 87.0943 68.3875C87.2777 68.5875 87.5193 68.7625 87.8193 68.9125C88.1193 69.0542 88.461 69.1833 88.8443 69.3C89.2277 69.4167 89.6193 69.5417 90.0193 69.675C90.4193 69.8083 90.811 69.9625 91.1943 70.1375C91.5777 70.3125 91.9193 70.5292 92.2193 70.7875C92.5193 71.0375 92.761 71.3458 92.9443 71.7125C93.1277 72.0708 93.2193 72.5083 93.2193 73.025C93.2193 73.625 93.111 74.1792 92.8943 74.6875C92.6777 75.1958 92.361 75.6375 91.9443 76.0125C91.5277 76.3875 91.0068 76.6792 90.3818 76.8875C89.7652 77.0958 89.0568 77.2 88.2568 77.2C87.8152 77.2 87.386 77.1583 86.9693 77.075C86.561 77 86.1693 76.8958 85.7943 76.7625C85.4277 76.6208 85.0818 76.4542 84.7568 76.2625C84.4402 76.0708 84.1568 75.8625 83.9068 75.6375L84.5318 74.6125C84.6068 74.4875 84.6985 74.3917 84.8068 74.325C84.9235 74.25 85.0652 74.2125 85.2318 74.2125C85.4068 74.2125 85.5777 74.2708 85.7443 74.3875C85.9193 74.4958 86.1193 74.6167 86.3443 74.75C86.5777 74.8833 86.8568 75.0083 87.1818 75.125C87.5068 75.2333 87.911 75.2875 88.3943 75.2875C88.7943 75.2875 89.1402 75.2417 89.4318 75.15C89.7235 75.05 89.9652 74.9167 90.1568 74.75C90.3485 74.5833 90.4902 74.3958 90.5818 74.1875C90.6735 73.9708 90.7193 73.7417 90.7193 73.5C90.7193 73.175 90.6277 72.9083 90.4443 72.7C90.261 72.4917 90.0152 72.3125 89.7068 72.1625C89.4068 72.0125 89.061 71.8792 88.6693 71.7625C88.286 71.6458 87.8943 71.5208 87.4943 71.3875C87.0943 71.2542 86.6985 71.1 86.3068 70.925C85.9235 70.75 85.5777 70.5292 85.2693 70.2625C84.9693 69.9875 84.7277 69.6583 84.5443 69.275C84.361 68.8833 84.2693 68.4083 84.2693 67.85C84.2693 67.3417 84.3693 66.8583 84.5693 66.4C84.7777 65.9417 85.0777 65.5375 85.4693 65.1875C85.8693 64.8375 86.3568 64.5625 86.9318 64.3625C87.5152 64.1542 88.186 64.05 88.9443 64.05C89.8027 64.05 90.5818 64.1875 91.2818 64.4625C91.9818 64.7375 92.5693 65.1125 93.0443 65.5875L92.4443 66.5625Z" fill="white"/>
</svg>
